<svg id="Слой_1" data-name="Слой 1" xmlns="http://www.w3.org/2000/svg" viewBox="0 0 90 84"><defs><style>.cls-1{fill:#64c436;}</style></defs><title>body</title><path class="cls-1" d="M63,21c0-10.43,4.89-15.64,5.14-15.89A3,3,0,0,0,63.88.88C63.6,1.16,57,7.91,57,21c0,6.2,2.67,10.81,5.5,15.69l0.38,0.66A39,39,0,0,1,45,42a39,39,0,0,1-17.88-4.65l0.38-.66C30.33,31.81,33,27.2,33,21,33,7.91,26.4,1.16,26.12.88a3,3,0,1,0-4.24,4.24C21.93,5.17,27,10.54,27,21c0,4.59-2.17,8.33-4.69,12.67C18.88,39.59,15,46.29,15,57c0,12.56,6.06,24.83,6.32,25.34a3,3,0,0,0,5.37-2.68C26.63,79.55,21,68.12,21,57c0-1,0-1.89.12-2.79C26.27,56,37.19,60.32,42,64.33V81a3,3,0,0,0,6,0V64.33c4.81-4,15.73-8.32,20.89-10.12C69,55.11,69,56,69,57c0,11.12-5.63,22.55-5.68,22.66a3,3,0,1,0,5.37,2.68C68.94,81.83,75,69.56,75,57c0-10.72-3.88-17.42-7.31-23.33C65.17,29.34,63,25.59,63,21ZM45,59.06c-7.19-5.42-20.9-10.18-22.84-10.83a34.65,34.65,0,0,1,2.11-5.59A44.76,44.76,0,0,0,45,48a44.77,44.77,0,0,0,20.72-5.36,34.61,34.61,0,0,1,2.11,5.59C65.9,48.88,52.19,53.64,45,59.06Z"/><circle class="cls-1" cx="45" cy="33" r="3"/><path class="cls-1" d="M20.5,19.34l-6-9a3,3,0,1,0-5,3.33L12.4,18H3a3,3,0,0,0,0,6h9.4L9.5,28.34a3,3,0,1,0,5,3.33l6-9A3,3,0,0,0,20.5,19.34Z"/><path class="cls-1" d="M87,18H77.6l2.89-4.34a3,3,0,1,0-5-3.33l-6,9a3,3,0,0,0,0,3.33l6,9a3,3,0,0,0,5-3.33L77.61,24H87A3,3,0,0,0,87,18Z"/></svg>