<svg id="Слой_1" data-name="Слой 1" xmlns="http://www.w3.org/2000/svg" viewBox="0 0 90 53.38"><defs><style>.cls-1{fill:#4cb361;}</style></defs><title>how-get3</title><path class="cls-1" d="M83.39,34.27a1,1,0,0,0-1,1v3.85a1,1,0,0,0,1.93,0V35.23A1,1,0,0,0,83.39,34.27ZM19.34,42a3.91,3.91,0,0,0-3.89,3.82s0,0.05,0,.08a3.89,3.89,0,1,0,7.79,0s0,0,0-.07A3.91,3.91,0,0,0,19.34,42Zm0,5.86a2,2,0,0,1-2-2v0a2,2,0,0,1,3.93,0v0A2,2,0,0,1,19.34,47.9Zm68.14-5.38a1,1,0,0,0,0-.28V25.38L73.76,7.57h-15V6.05H76.24a1,1,0,0,0,0-1.93H58.76V0H3.58a1,1,0,0,0-1,1V42.52H0V48H8.12V46.79h3.82a7.44,7.44,0,0,0,14.79,0h37.5a7.44,7.44,0,0,0,14.79,0h2.86V48H90v-5.5H87.48ZM84.73,24.91H67v-10H77ZM4.54,1.93H6.06v40.6H4.54V1.93ZM6.19,46.1H1.93V44.45H6.19V46.1Zm13.15,5.35a5.52,5.52,0,0,1-5.52-5.52s0,0,0-.07v0a5.52,5.52,0,0,1,11,0v0s0,0,0,.07A5.53,5.53,0,0,1,19.34,51.45Zm52.28,0a5.52,5.52,0,0,1-5.52-5.52s0,0,0-.07v0a5.52,5.52,0,0,1,11,0v0s0,0,0,.07A5.53,5.53,0,0,1,71.62,51.45Zm10.26-6.59H79a7.44,7.44,0,0,0-14.73,0H26.7a7.44,7.44,0,0,0-14.73,0H8.12V42.52H8V1.93H56.83V35.5a1,1,0,0,0,1.93,0V9.5H72.81l2.66,3.44H65.09v12H63.16a1,1,0,0,0,0,1.93H85.59V42.25a1,1,0,0,0,0,.28H81.88v2.34h0Zm6.19,1.24H83.81V44.45h4.27V46.1ZM15.41,29.31H11a1,1,0,0,0,0,1.93h4.4A1,1,0,0,0,15.41,29.31Zm0,2.89H11a1,1,0,0,0,0,1.93h4.4A1,1,0,0,0,15.41,32.2ZM71.63,42a3.91,3.91,0,0,0-3.89,3.82s0,0.05,0,.08a3.89,3.89,0,1,0,7.79,0s0,0,0-.07A3.91,3.91,0,0,0,71.63,42Zm0,5.86a2,2,0,0,1-2-2v0a2,2,0,0,1,3.93,0v0A2,2,0,0,1,71.63,47.9ZM15.41,35.09H11A1,1,0,0,0,11,37h4.4A1,1,0,0,0,15.41,35.09ZM64,34.82H61.65a1,1,0,0,0,0,1.93H64A1,1,0,0,0,64,34.82Z"/></svg>