<svg id="Слой_1" data-name="Слой 1" xmlns="http://www.w3.org/2000/svg" viewBox="0 0 508.03 508"><defs><style>.cls-1{fill:#2c9aa5;}</style></defs><title>how-get2</title><path class="cls-1" d="M256,305.2c51.7,0,96.4-30.2,117.7-73.7H428V174.1C428,79.2,350.8,2,256,2S83.9,79.2,83.9,174.1v8.2h41.4C129.6,250.7,186.5,305.2,256,305.2ZM363,215H303.1a31.76,31.76,0,1,0-.8,16.3h52.9a114.4,114.4,0,1,1,15.5-57.2A113.49,113.49,0,0,1,363,215Zm-75.5,7a15.1,15.1,0,1,1-15.1-15.1A15.09,15.09,0,0,1,287.5,222ZM256,18.4c85.8,0,155.7,69.8,155.7,155.7v41H380.5a129.48,129.48,0,0,0,6.6-41A131.23,131.23,0,0,0,256,43c-69.5,0-126.4,54.4-130.7,122.9H100.5C104.8,83.8,172.9,18.4,256,18.4Z" transform="translate(-2 -2)"/><path class="cls-1" d="M374.5,287.2S329.3,338,256,338c-72.7,0-118.5-50.8-118.5-50.8S2,341.9,2,510H510C512.5,343.6,374.5,287.2,374.5,287.2ZM18.5,493.6c2.8-78.6,46.6-149,116.1-186.5a179.72,179.72,0,0,0,242.8,0A220.44,220.44,0,0,1,493.5,493.6H18.5Z" transform="translate(-2 -2)"/><rect class="cls-1" x="245.8" y="368.7" width="16.4" height="16.4"/><rect class="cls-1" x="245.8" y="409.7" width="16.4" height="16.4"/><rect class="cls-1" x="245.8" y="450.6" width="16.4" height="16.4"/></svg>