<svg id="Слой_1" data-name="Слой 1" xmlns="http://www.w3.org/2000/svg" viewBox="0 0 82.84 77.95"><defs><style>.cls-1{fill:#62c42b;}</style></defs><title>how-get4</title><path class="cls-1" d="M30.63,12.2L25,0,0,13,15,38.77V70.82H32.25L36,77.95l13.68-7.12H78.72V27.2h4.13v-15H30.63Zm5.78,3v9H36.19L32,15.2h4.39ZM23.65,3.91L39.74,38.64,23.19,47.26,4,14.15ZM18,67.82V43.94L22.09,51,43.47,39.91,39.4,31.14V15.2H54.28V46.69l-10-3.6h0l-0.1.06-0.27.14L23.46,53.94l7.23,13.88H18Zm33.17-11.4,3.15,1.14v4.9ZM43.07,71.26L38.79,63l-2.35,1.22,4.28,8.21-3.65,1.9L27,55.06l7.4-3.85,6.9-3.59,2.86-1.49A1.4,1.4,0,0,1,44.46,46l10.37,3.79L53.2,54.36,49.33,53h0L49,53.12l-2,1.06,0,0.06,0.84,1.61L53.15,66l-4.23,2.2L44.64,60,42.3,61.23l4.28,8.21Zm32.65-3.44H57.28v-17l1-2.73-1-.36V27.2H75.72V67.82ZM79.84,24.2H57.28v-9H79.84v9Z"/></svg>