<svg id="Слой_1" data-name="Слой 1" xmlns="http://www.w3.org/2000/svg" viewBox="0 0 78 89.99"><defs><style>.cls-1{fill:#64c436;}</style></defs><title>leaf</title><path class="cls-1" d="M77.6,24.08a5.34,5.34,0,0,0-.28-1.72,6.81,6.81,0,0,0-1-2,8.28,8.28,0,0,0-.62-.73l0,0-.34-.31a10.34,10.34,0,0,0,.32-2.47,8.5,8.5,0,0,0-.23-2,7.7,7.7,0,0,0-1.32-2.77,8.78,8.78,0,0,0-1.4-1.47,11,11,0,0,0-2.16-1.4A13.11,13.11,0,0,0,69,8.63a5,5,0,0,0-1.06-1,5.85,5.85,0,0,0-2-.93,8.09,8.09,0,0,0-2-.23,12.52,12.52,0,0,0-2.13.2c-.45.08-.92.18-1.38.3a5.2,5.2,0,0,0-1.31-.66A5,5,0,0,0,57.55,6h0A5.74,5.74,0,0,0,56,6.24,7.71,7.71,0,0,0,54.15,7,10.07,10.07,0,0,0,53,7.76a4.78,4.78,0,0,0-1.22-.44,6.72,6.72,0,0,0-1.53-.16,9.85,9.85,0,0,0-1.88.18A16.27,16.27,0,0,0,45.88,8c-.55.18-1.11.39-1.65.62a4.51,4.51,0,0,0-.93-.21,7.9,7.9,0,0,0-1.13-.08,13.26,13.26,0,0,0-2.06.18,26.13,26.13,0,0,0-2.92.62c-.77.21-1.46.42-1.94.58A8.44,8.44,0,0,0,33.31,9a10.24,10.24,0,0,0-2.17-.23,13,13,0,0,0-2.77.31,19.69,19.69,0,0,0-3.55,1.14,23.17,23.17,0,0,0-2.16,1.06,17.58,17.58,0,0,0-6.53-1.41A11.06,11.06,0,0,0,11.27,11a10.66,10.66,0,0,0-2.62,1.83A12.9,12.9,0,0,0,6.21,16a15.54,15.54,0,0,0-1,2.34,9.13,9.13,0,0,0-1.85,1.17A6.94,6.94,0,0,0,2.2,20.64a6.3,6.3,0,0,0-1,2,6.89,6.89,0,0,0-.29,2,8.35,8.35,0,0,0,.39,2.46,10.8,10.8,0,0,0,.59,1.54A4.6,4.6,0,0,0,.81,30a4.51,4.51,0,0,0-.32,1,5,5,0,0,0-.09,1,6.09,6.09,0,0,0,.3,1.83A9.68,9.68,0,0,0,1.79,36a15.87,15.87,0,0,0,1,1.46,3.17,3.17,0,0,0-.26.69,3.85,3.85,0,0,0-.1.91,5.47,5.47,0,0,0,.24,1.58,12.05,12.05,0,0,0,.83,2.07c.23.45.49.91.77,1.39a4.41,4.41,0,0,0-.53,1.19,5.59,5.59,0,0,0-.18,1.45A9.75,9.75,0,0,0,4,49.22,20.42,20.42,0,0,0,5.15,52.5c.38.86.75,1.57,1,2a5.3,5.3,0,0,0,.26,1.27,5.47,5.47,0,0,0,1.11,1.94A7.35,7.35,0,0,0,9.76,59.5a11.11,11.11,0,0,0,1.72.73,19.59,19.59,0,0,0,1,2.82,19.26,19.26,0,0,0,2.54,4.11,8.47,8.47,0,0,0,1.47,1.4A9.42,9.42,0,0,0,19.31,70a16.69,16.69,0,0,0,1.94.49l.71.14.53.1A8.09,8.09,0,0,1,23.8,71a1.78,1.78,0,0,1,.31.15.3.3,0,0,1,.1.09,4.78,4.78,0,0,0,.93.85,6.12,6.12,0,0,0,1,.6,3.18,3.18,0,0,0,1.43.35,3.13,3.13,0,0,0,1.31-.29,3.22,3.22,0,0,0,1.64-4.18,3.18,3.18,0,0,0-.76-1.07l-3.58-4a7,7,0,0,0,.08-1.1A6.2,6.2,0,0,0,26,60.66a6,6,0,0,0-.59-1.37,6.19,6.19,0,0,0-1.61-1.75A9,9,0,0,0,21,56.19a13.12,13.12,0,0,0-2.11-.43,5.42,5.42,0,0,0-.28-1.42,7.4,7.4,0,0,0-1.11-2.11,9.38,9.38,0,0,0-1-1.17,4.52,4.52,0,0,0,.23-1.49v-.22a20.47,20.47,0,0,0,25.25,9.93c.58-.21,1.14-.45,1.69-.71a4,4,0,0,0-.52.63,4.61,4.61,0,0,0-.61,1.47,6.68,6.68,0,0,0-.15,1.46,13.33,13.33,0,0,0,.31,2.65c.2,1,.46,1.94.71,2.88.08.3.16.6.23.89.18.67.29,1.15.37,1.56a6.54,6.54,0,0,1,.13,1c0,.08,0,.14,0,.18h0a7.06,7.06,0,0,0-.28,1,13.32,13.32,0,0,0-.2,1.65c0,.53-.05,1.13-.05,1.78,0,1.88.15,3.9.27,5.25a3.3,3.3,0,0,0,.33,1.15A3.18,3.18,0,0,0,47,84h.73a3.39,3.39,0,0,0,.43,0,2.94,2.94,0,0,0,.89-.25,3.06,3.06,0,0,0,.49-.3A3.33,3.33,0,0,0,50,83a7.23,7.23,0,0,0,.73-1.1,6,6,0,0,0,.57-1.63,7.07,7.07,0,0,0,.12-1.39c0-.2,0-.39,0-.57s0-.29,0-.43a2.76,2.76,0,0,1,.07-.72,1.33,1.33,0,0,1,.1-.28,1.79,1.79,0,0,1,.19-.32,5.31,5.31,0,0,0,.69-1.39A10.65,10.65,0,0,0,52.86,73,21.26,21.26,0,0,0,53,70.74c0-.72,0-1.49-.09-2.3q.49-.09,1.08-.24c.67-.16,1.43-.38,2.26-.65L57.76,67a9,9,0,0,0,3,.51A9.63,9.63,0,0,0,63.81,67a12.58,12.58,0,0,0,3.46-1.83,14.77,14.77,0,0,0,1.85-1.6,8,8,0,0,0,3.3-1.52A7.47,7.47,0,0,0,74,60.24a9,9,0,0,0,1.15-2.91A11.45,11.45,0,0,0,75.43,55v-.08a4.52,4.52,0,0,0,.61-.81,5.18,5.18,0,0,0,.59-1.62,8.19,8.19,0,0,0,.15-1.62A14.24,14.24,0,0,0,76.64,49a21.54,21.54,0,0,0-.53-2.55c-.15-.56-.32-1.13-.51-1.69a5.57,5.57,0,0,0,.58-1.47,7.06,7.06,0,0,0,.18-1.62,9.46,9.46,0,0,0-.25-2.11,13.81,13.81,0,0,0-.38-1.36,4.49,4.49,0,0,0,.5-.82,6.28,6.28,0,0,0,.5-1.62,9.32,9.32,0,0,0,.13-1.64,18.7,18.7,0,0,0-.38-3.49c-.16-.78-.35-1.58-.58-2.39a7.6,7.6,0,0,0,1.24-1.93A5.5,5.5,0,0,0,77.6,24.08ZM45.8,52.83h0l0,0-.08.06-.08,0a16.75,16.75,0,1,1,6.05-13.65v.06a.09.09,0,0,0,0,0c0,.05,0,.58,0,1.41a20.9,20.9,0,0,1-.19,2.83A16.81,16.81,0,0,1,51,46.26,12,12,0,0,1,49.2,50a8.67,8.67,0,0,1-1.41,1.54,8.18,8.18,0,0,1-1.86,1.22l0,0h0ZM46.05,23a20.17,20.17,0,0,0-4.62-2.25c.25-.09.5-.19.74-.3A11.6,11.6,0,0,0,44.53,19a10.8,10.8,0,0,0,3.87.83,5.66,5.66,0,0,0,1.93-.32,4.39,4.39,0,0,0,1.13-.61,8.12,8.12,0,0,0,1.21.1h0A8.93,8.93,0,0,0,56,18.3a11.39,11.39,0,0,0,2-1,4.81,4.81,0,0,0,1.43.62,6.67,6.67,0,0,0,1.71.22,9,9,0,0,0,1.74-.18,10.17,10.17,0,0,0,1-.24,6.11,6.11,0,0,0,.21.75,12.48,12.48,0,0,0,.74,1.75c.19.37.41.74.64,1.12A4.09,4.09,0,0,0,65,22.42a5,5,0,0,0-.2,1.42A7.31,7.31,0,0,0,65.1,26a9.86,9.86,0,0,0,.51,1.36,3.07,3.07,0,0,0-.25.55A5.81,5.81,0,0,0,65.1,29,10,10,0,0,0,65,30.16a20.1,20.1,0,0,0,.27,3c.12.72.26,1.47.43,2.25a2.86,2.86,0,0,0-.42.55,3.4,3.4,0,0,0-.45,1.14,4.51,4.51,0,0,0-.11,1.07,7.8,7.8,0,0,0,.09,1.14,14.63,14.63,0,0,0,.35,1.6c.11.36.22.73.36,1.11a2.9,2.9,0,0,0-.29.52,3.91,3.91,0,0,0-.3,1.11,7.17,7.17,0,0,0-.07,1.08,14.35,14.35,0,0,0,.1,1.64c.08.74.21,1.57.39,2.47.11.57.24,1.16.38,1.76a4.33,4.33,0,0,0-.42.52,7.12,7.12,0,0,0-.72,1.33l-.15.35-9.2-14.17A20.39,20.39,0,0,0,46.05,23ZM51.8,52.67a13.91,13.91,0,0,0,1.91-3.2A19.11,19.11,0,0,0,55,45l6,9.24-.88-.11h-.06l-8.66-1ZM13.85,42.62a7.37,7.37,0,0,0,.4-2.37,6.61,6.61,0,0,0-.45-2.41,7.37,7.37,0,0,0-.73-1.39,5.66,5.66,0,0,0,.32-1,6.11,6.11,0,0,0,.13-1.28,7.37,7.37,0,0,0-.41-2.39,10.64,10.64,0,0,0-.62-1.46,4.31,4.31,0,0,0,.84-.76,4.91,4.91,0,0,0,.61-1,5.4,5.4,0,0,0,.46-1.52,8.65,8.65,0,0,0,.12-1.49,14.23,14.23,0,0,0-.23-2.49h.12a18.55,18.55,0,0,0,2.53-.19c1.08-.15,2.29-.39,3.58-.7.94-.23,1.74-.46,2.28-.62a12.66,12.66,0,0,0,2.58.41A20.41,20.41,0,0,0,14.45,40.08a20.73,20.73,0,0,0,.43,4.18C14.51,43.61,14.13,43,13.85,42.62ZM49.42,66.76A3.24,3.24,0,0,0,49.16,68a2.44,2.44,0,0,0,0,.27h0c.07.87.11,1.69.11,2.44a14.28,14.28,0,0,1-.16,2.35,6,6,0,0,1-.21.86,2.41,2.41,0,0,1-.19.43,5.88,5.88,0,0,0-.55.92,5.39,5.39,0,0,0-.42,1.38,7.71,7.71,0,0,0-.08,1.17c0,.2,0,.39,0,.56v.44a3.07,3.07,0,0,1-.1.89,1.56,1.56,0,0,1-.15.39c-.09-1.12-.21-2.79-.21-4.34a18.61,18.61,0,0,1,.09-2,6.34,6.34,0,0,1,.1-.74c.05-.26.1-.39.11-.44l0,0h0a4.78,4.78,0,0,0,.17-.7,5.23,5.23,0,0,0,0-.71A8.4,8.4,0,0,0,47.67,70c-.11-.72-.28-1.45-.44-2.07-.1-.4-.21-.82-.32-1.23-.18-.65-.35-1.31-.5-1.94s-.23-1-.29-1.44A8.07,8.07,0,0,1,46,62.14a3.37,3.37,0,0,1,.05-.6,1.54,1.54,0,0,1,.07-.24.42.42,0,0,1,.07-.1s0,0,.15-.07a15.15,15.15,0,0,0,2.22-.86,11.59,11.59,0,0,0,1.08-.62,4.54,4.54,0,0,0,.43-.29l.08,0,.22-.14,0,0,.18,0a4.31,4.31,0,0,1,.45.1,4.49,4.49,0,0,0,1.07.12,8,8,0,0,0,1-.08,15.65,15.65,0,0,0,1.8-.37c.43-.1.87-.22,1.31-.34l1.42-.37a15.44,15.44,0,0,1,2.2-.4l4.62.57h.36l.14,0h.07l.18,0h.05l.14,0h0l0,0,.12-.06h0l0,0,.1-.06h0l0,0,.13-.1.14-.14h0l0,0a6.94,6.94,0,0,0,1-1.56c.18-.4.33-.79.47-1.13l.06-.16c.17-.45.34-.88.5-1.21a3.51,3.51,0,0,1,.23-.41,1.16,1.16,0,0,1,.11-.14,3.09,3.09,0,0,0,.79-1.1,3.18,3.18,0,0,0,.25-1.26,3.29,3.29,0,0,0-.09-.76c-.15-.62-.36-1.58-.54-2.59-.09-.52-.16-1-.21-1.44a12,12,0,0,1-.07-1.24,3.25,3.25,0,0,1,0-.65,2.82,2.82,0,0,0,.48-.84,3.21,3.21,0,0,0,.2-1.11,3.31,3.31,0,0,0-.2-1.12,15.33,15.33,0,0,1-.46-1.49,6.21,6.21,0,0,1-.15-.75,3.38,3.38,0,0,1,0-.6.88.88,0,0,1,0-.25,3.39,3.39,0,0,0,.7-1,3.18,3.18,0,0,0,.32-1.39,3.25,3.25,0,0,0-.08-.69c-.12-.55-.3-1.4-.44-2.29a14.27,14.27,0,0,1-.23-2.45,5,5,0,0,1,.06-.85c0-.08,0-.14,0-.19a3.22,3.22,0,0,0,.53-1.76,3,3,0,0,0-.3-1.33,8.39,8.39,0,0,1-.43-1.11,3.57,3.57,0,0,1-.18-1.08,1.39,1.39,0,0,1,0-.37.93.93,0,0,1,.08-.17,2.84,2.84,0,0,0,.52-.95,2.91,2.91,0,0,0,.17-1,3.28,3.28,0,0,0-.5-1.74,14.2,14.2,0,0,1-.84-1.5,7.94,7.94,0,0,1-.32-.81,4.79,4.79,0,0,1-.17-.71A3.25,3.25,0,0,0,67,15.45a3.15,3.15,0,0,0-1.18-1.17,3.21,3.21,0,0,0-1.6-.42,3.3,3.3,0,0,0-1,.15,8.57,8.57,0,0,1-1.1.29,6,6,0,0,1-1.05.11,2.75,2.75,0,0,1-.75-.09,1.3,1.3,0,0,1-.49-.22,3.27,3.27,0,0,0-2.83-.49,3.5,3.5,0,0,0-.87.42,7.67,7.67,0,0,1-1.56.85,5.24,5.24,0,0,1-1.94.41,3.77,3.77,0,0,1-.76-.07,3.05,3.05,0,0,0-.6-.06,3.18,3.18,0,0,0-2.08.78.61.61,0,0,1-.17.09,2.09,2.09,0,0,1-.67.09,7.81,7.81,0,0,1-2.78-.67,3.12,3.12,0,0,0-1.17-.22A3.25,3.25,0,0,0,42.4,16a7.77,7.77,0,0,1-1.74,1.09,6.44,6.44,0,0,1-2.68.6,6.66,6.66,0,0,1-2.41-.47A3.15,3.15,0,0,0,34.4,17a3.28,3.28,0,0,0-1,.15,27.32,27.32,0,0,1-2.83.75,21,21,0,0,1-4.16.47A9.9,9.9,0,0,1,23.66,18a3.58,3.58,0,0,0-.87-.12,3.21,3.21,0,0,0-.92.14c-.6.18-1.83.53-3.25.84-.78.17-1.52.31-2.19.4a16,16,0,0,1-2,.16l-.51,0h-.22a3.19,3.19,0,0,0-1.26.26,3.16,3.16,0,0,0-1.93,2.94,3.49,3.49,0,0,0,.06.65,11.81,11.81,0,0,1,.28,2.34,6,6,0,0,1-.05.78,2.18,2.18,0,0,1-.22.72.39.39,0,0,1-.1.14l-.09.06a3.16,3.16,0,0,0-1.3,1.21,3.21,3.21,0,0,0-.44,1.63,3.11,3.11,0,0,0,.42,1.58,7.84,7.84,0,0,1,.56,1.24,4.1,4.1,0,0,1,.22,1.22,2.73,2.73,0,0,1-.05.5,2.41,2.41,0,0,1-.16.45h0a3.24,3.24,0,0,0-.33,1.4A3.18,3.18,0,0,0,10,38.43a3.27,3.27,0,0,1,.42.75,3,3,0,0,1,.2,1.07,3.91,3.91,0,0,1-.26,1.33h0a3,3,0,0,0-.2,1.11,3.14,3.14,0,0,0,.57,1.82A24.13,24.13,0,0,1,12.18,47a10.79,10.79,0,0,1,.6,1.46A4,4,0,0,1,13,49.57a.74.74,0,0,1,0,.3h0a3.21,3.21,0,0,0-.28,1.33,3.32,3.32,0,0,0,.25,1.25,3.09,3.09,0,0,0,.79,1.1,6.09,6.09,0,0,1,1,1.23,2.94,2.94,0,0,1,.33.7,2.23,2.23,0,0,1,.11.66l.38,0v0H15.2a3.14,3.14,0,0,0,.23,1.18,3.1,3.1,0,0,0,1,1.36,3.27,3.27,0,0,0,1.61.63,9.75,9.75,0,0,1,1.62.28,7.13,7.13,0,0,1,1.21.42,5,5,0,0,1,.73.43,2.51,2.51,0,0,1,.69.78,2.13,2.13,0,0,1,.18.5,2.71,2.71,0,0,1,.08.66,4.61,4.61,0,0,1-.07.72h0a3.15,3.15,0,0,0,0,.53,3.2,3.2,0,0,0,.82,2.14l1.46,1.62-.16,0A15.7,15.7,0,0,0,22.73,67l-.1,0A14.42,14.42,0,0,1,20,66.28a6.33,6.33,0,0,1-1.1-.58,4.67,4.67,0,0,1-.95-.88,15.49,15.49,0,0,1-2-3.3A15.88,15.88,0,0,1,15,59a3.25,3.25,0,0,0-2.17-2.26,6.75,6.75,0,0,1-1-.37,5.69,5.69,0,0,1-.78-.43,3.34,3.34,0,0,1-.88-.82,1.74,1.74,0,0,1-.23-.45,1.85,1.85,0,0,1-.11-.53,3.37,3.37,0,0,0-.39-1.32,25.19,25.19,0,0,1-1.3-2.74,15.85,15.85,0,0,1-.62-1.83,6.45,6.45,0,0,1-.23-1.52,1.91,1.91,0,0,1,0-.49c0-.09,0-.12,0-.13a3.22,3.22,0,0,0,.71-2,3.19,3.19,0,0,0-.48-1.68,15.12,15.12,0,0,1-1-1.89,7.85,7.85,0,0,1-.35-.91,2.68,2.68,0,0,1-.1-.57,3.32,3.32,0,0,0,.46-1.68,3.13,3.13,0,0,0-.18-1,2.93,2.93,0,0,0-.55-1,11.57,11.57,0,0,1-1.26-1.82,5.53,5.53,0,0,1-.41-.93,2.3,2.3,0,0,1-.13-.71,1.25,1.25,0,0,1,0-.21.73.73,0,0,1,.09-.22,1.08,1.08,0,0,1,.26-.27,3.23,3.23,0,0,0,1.21-2.51,3.2,3.2,0,0,0-.35-1.45A7.84,7.84,0,0,1,4.8,26a4.92,4.92,0,0,1-.23-1.4,2.87,2.87,0,0,1,.1-.8,2.56,2.56,0,0,1,.61-1.1,5,5,0,0,1,1.65-1.13A3.38,3.38,0,0,0,8,20.77a3.29,3.29,0,0,0,.64-1.14A10.15,10.15,0,0,1,9.32,18a9.66,9.66,0,0,1,1-1.55,7.42,7.42,0,0,1,2.28-2,6.29,6.29,0,0,1,1.57-.63,8,8,0,0,1,2-.25,14.15,14.15,0,0,1,5.33,1.22,3.28,3.28,0,0,0,1.23.24,3.24,3.24,0,0,0,1.58-.41,18.83,18.83,0,0,1,2.89-1.34,15.51,15.51,0,0,1,2-.58,9.75,9.75,0,0,1,2-.23,5.9,5.9,0,0,1,1.36.15,4.12,4.12,0,0,1,1.19.44,3.16,3.16,0,0,0,1.51.38,3.32,3.32,0,0,0,1-.17c.52-.17,1.57-.51,2.73-.78.61-.15,1.18-.26,1.7-.34A9.82,9.82,0,0,1,42.17,12a3.87,3.87,0,0,1,.62,0,1.09,1.09,0,0,1,.35.08,3.16,3.16,0,0,0,2.36-.06,20.1,20.1,0,0,1,2.19-.78c.48-.14.94-.25,1.36-.33a7.28,7.28,0,0,1,1.24-.12,3.55,3.55,0,0,1,.71.07,1.16,1.16,0,0,1,.38.14,3.14,3.14,0,0,0,1.69.49h0a3.25,3.25,0,0,0,2-.68,7.27,7.27,0,0,1,1.26-.81A4.68,4.68,0,0,1,57,9.8a2.05,2.05,0,0,1,.57-.08,1.35,1.35,0,0,1,.41.06,1.25,1.25,0,0,1,.39.21,3.23,3.23,0,0,0,2,.67,3.35,3.35,0,0,0,.89-.12,10.45,10.45,0,0,1,1.22-.28,8.07,8.07,0,0,1,1.48-.15h0a4.11,4.11,0,0,1,1.42.22,1.72,1.72,0,0,1,.47.24,1.57,1.57,0,0,1,.34.34,3.11,3.11,0,0,0,1.61,1.17,9.51,9.51,0,0,1,1.18.49,7.81,7.81,0,0,1,1.1.66,6.38,6.38,0,0,1,.77.67,4.12,4.12,0,0,1,1.17,3,6.8,6.8,0,0,1-.25,1.77,3.13,3.13,0,0,0-.12.86,3.17,3.17,0,0,0,1.05,2.38,5.24,5.24,0,0,1,.89,1,2.92,2.92,0,0,1,.28.6,1.73,1.73,0,0,1,.1.58,1.89,1.89,0,0,1-.17.75A3.78,3.78,0,0,1,73,25.91a3.35,3.35,0,0,0-.63,1,3.21,3.21,0,0,0-.21,1.15,3.13,3.13,0,0,0,.13.91c.16.54.38,1.37.57,2.32a15.29,15.29,0,0,1,.31,2.78A5.2,5.2,0,0,1,73,35.37a2.09,2.09,0,0,1-.13.38l-.11.18A3.22,3.22,0,0,0,72,38.07a3,3,0,0,0,.19,1.08,9,9,0,0,1,.34,1.18,5.84,5.84,0,0,1,.16,1.31,3,3,0,0,1-.08.76,1.65,1.65,0,0,1-.22.54,3.28,3.28,0,0,0-.5,1.74,3.38,3.38,0,0,0,.17,1,22.78,22.78,0,0,1,.68,2.34c.11.5.21,1,.27,1.43a9.76,9.76,0,0,1,.1,1.35A3.84,3.84,0,0,1,73,52a1.22,1.22,0,0,1-.11.28.44.44,0,0,1-.08.1,3.2,3.2,0,0,0-.78,1.1,3.37,3.37,0,0,0-.25,1.26V55a8.11,8.11,0,0,1-.12,1.4,6.54,6.54,0,0,1-.33,1.18,4.75,4.75,0,0,1-.42.81,3.62,3.62,0,0,1-1,1,4.36,4.36,0,0,1-1.66.67,3.18,3.18,0,0,0-1.68.92,11.49,11.49,0,0,1-2.21,1.79,7.74,7.74,0,0,1-1.71.8,5.78,5.78,0,0,1-1.88.33,5.35,5.35,0,0,1-1.88-.35,3.32,3.32,0,0,0-1.13-.2,3.24,3.24,0,0,0-1.1.2c-.43.16-1.3.47-2.23.75-.49.15-.94.28-1.34.38s-.84.18-1.15.22a3.38,3.38,0,0,0-1.11.37,3.24,3.24,0,0,0-1.14,1.07ZM47.86,56.41h0a7,7,0,0,1-.91.54,12.33,12.33,0,0,1-1.36.55,19.55,19.55,0,0,0,1.69-1.17Z"/><path class="cls-1" d="M38.28,39.88a8.57,8.57,0,0,0,2.36.33,8.22,8.22,0,0,0,1-.06l.93-.11a1.65,1.65,0,0,0,1.2-2.77,1.6,1.6,0,0,0-1.14-.52H42.5l-1,.11a5.69,5.69,0,0,1-.83,0,7.24,7.24,0,0,1-2-.27l-.07,0-.09,0h-.15a1.64,1.64,0,0,0-1.65,1.58A1.66,1.66,0,0,0,38.28,39.88Z"/><path class="cls-1" d="M32.61,30.75l.8.49a1.65,1.65,0,0,0,2.65-1.45,1.64,1.64,0,0,0-.58-1.12l0,0-.06,0-.81-.49a7.15,7.15,0,0,1-2.06-1.89l0-.06-.06-.07L32.34,26a1.6,1.6,0,0,0-1.06-.39,1.64,1.64,0,0,0-1.26.58,1.67,1.67,0,0,0-.39,1.21,1.69,1.69,0,0,0,.51,1.05A8.63,8.63,0,0,0,32.61,30.75Z"/><path class="cls-1" d="M29.25,39.49l.8.49a1.64,1.64,0,0,0,1,.34,1.64,1.64,0,0,0,1.64-1.79,1.64,1.64,0,0,0-.58-1.12l0,0,0,0-.81-.49A7,7,0,0,1,29.15,35l0-.06-.05-.08L29,34.76a1.66,1.66,0,0,0-2.32.2,1.65,1.65,0,0,0,.11,2.26A8.67,8.67,0,0,0,29.25,39.49Z"/><path class="cls-1" d="M25.06,36.26h0A1.55,1.55,0,0,0,22,36.15v.17L22.24,38A14.77,14.77,0,0,1,22,43.8l0,.13v.14a1.55,1.55,0,0,0,3.09-.17h0a14.37,14.37,0,0,0,.28-5.8Z"/><path class="cls-1" d="M40.39,46.87a1.5,1.5,0,0,0-.71.18l-.08,0-.06,0-1.29,1.1a14.71,14.71,0,0,1-5.08,2.83l-.13,0-.11.08a1.54,1.54,0,0,0-.56.87,1.51,1.51,0,0,0,.19,1.17,1.53,1.53,0,0,0,1.32.74,1.58,1.58,0,0,0,.81-.23h0a14.41,14.41,0,0,0,5.09-2.79l1.4-1.19h0a1.51,1.51,0,0,0,.69-1,1.54,1.54,0,0,0-1.51-1.91Z"/><path class="cls-1" d="M47.2,44.65h.06a1.54,1.54,0,0,0,1.55-1.49,1.56,1.56,0,0,0-1.38-1.6h-.17l-1.68.2a14.34,14.34,0,0,1-1.73.1,14.71,14.71,0,0,1-4.07-.57l-.13,0h-.14a1.54,1.54,0,0,0-1.44,1.49,1.52,1.52,0,0,0,.41,1.11,1.59,1.59,0,0,0,1.08.5h0a14.41,14.41,0,0,0,4.12.6,15.59,15.59,0,0,0,1.67-.1l1.82-.21Z"/><path class="cls-1" d="M37.75,30.29l.06.06,1.32,1.06a14.82,14.82,0,0,1,3.7,4.48l.07.12.1.1a1.55,1.55,0,0,0,2.07,0A1.5,1.5,0,0,0,45.58,35a1.55,1.55,0,0,0-.4-1.12h0A14.5,14.5,0,0,0,41.5,29.4l-1.43-1.16h0a1.54,1.54,0,0,0-2.18-.11,1.54,1.54,0,0,0-.19,2.1Z"/><path class="cls-1" d="M33.39,44.84a1.64,1.64,0,0,0,.17-1.22,1.73,1.73,0,0,0-.77-1,1.68,1.68,0,0,0-.89-.26,1.61,1.61,0,0,0-1.34.71l0,.07,0,.07-.55,1.35a11.64,11.64,0,0,1-2.68,4l-.09.08-.08.14a1.66,1.66,0,0,0,.65,2.16,1.7,1.7,0,0,0,.89.25A1.63,1.63,0,0,0,30,50.44a12.36,12.36,0,0,0,2.82-4.17Z"/><path class="cls-1" d="M28.44,32.64l.07,0,1.2.83A11.72,11.72,0,0,1,33,37l.07.11.11.11a1.63,1.63,0,0,0,1,.36,1.73,1.73,0,0,0,1.23-.52,1.67,1.67,0,0,0,0-2.32A12.26,12.26,0,0,0,32,31.08l-1.27-.88a1.66,1.66,0,0,0-1.1-.43A1.72,1.72,0,0,0,28,31.48a1.59,1.59,0,0,0,.44,1.1Z"/></svg>